<?xml version="1.0" standalone="no"?>
<!DOCTYPE svg PUBLIC "-//W3C//DTD SVG 20010904//EN"
 "http://www.w3.org/TR/2001/REC-SVG-20010904/DTD/svg10.dtd">
<svg version="1.0" xmlns="http://www.w3.org/2000/svg"
 width="512.000000pt" height="512.000000pt" viewBox="0 0 512.000000 512.000000"
 preserveAspectRatio="xMidYMid meet">
<metadata>
Created by potrace 1.11, written by Peter Selinger 2001-2013
</metadata>
<g transform="translate(0.000000,512.000000) scale(0.100000,-0.100000)"
fill="#000000" stroke="none">
<path d="M3415 5062 c-16 -2 -35 -8 -40 -12 -6 -5 -39 -7 -75 -6 -36 2 -76 -1
-90 -6 -16 -6 -26 -6 -28 1 -5 16 -48 13 -62 -4 -7 -9 -21 -13 -34 -9 -15 3
-34 -5 -61 -26 -22 -16 -59 -45 -82 -62 -44 -32 -55 -64 -28 -74 24 -10 5 -26
-22 -19 -14 3 -31 1 -39 -6 -17 -14 -18 -71 -2 -87 9 -9 9 -12 -4 -12 -10 0
-17 -12 -20 -32 -6 -50 -2 -370 6 -395 5 -16 2 -23 -12 -27 -16 -6 -17 -12 -9
-69 5 -34 12 -69 16 -77 4 -8 6 -60 4 -115 -3 -101 -3 -112 -1 -162 1 -16 0
-46 0 -68 -5 -126 -1 -212 13 -270 9 -36 14 -72 11 -80 -2 -7 0 -16 7 -19 7
-2 1 -5 -13 -5 -19 -1 -21 -4 -12 -13 18 -18 15 -75 -5 -87 -13 -7 -14 -12 -6
-23 7 -8 10 -43 9 -85 -1 -40 1 -70 5 -68 8 6 9 -156 1 -170 -4 -5 -7 -47 -7
-91 0 -61 3 -80 13 -77 7 3 12 -3 12 -17 0 -11 -4 -19 -9 -15 -18 11 -32 -34
-26 -79 4 -24 3 -46 -2 -49 -4 -3 -8 -70 -7 -149 1 -135 2 -144 24 -169 24
-27 65 -169 49 -169 -5 0 -9 5 -9 12 0 9 -3 9 -12 0 -9 -9 -7 -16 6 -31 10
-11 16 -26 13 -33 -2 -7 0 -21 5 -31 15 -29 0 -33 -27 -7 -19 18 -22 27 -15
41 12 22 -7 69 -27 69 -12 0 -13 -16 -9 -82 7 -107 9 -122 21 -130 6 -4 3 -21
-8 -43 -9 -20 -17 -45 -17 -55 0 -22 29 -28 32 -7 2 17 5 48 7 75 1 30 21 18
21 -12 0 -13 6 -39 14 -57 13 -31 12 -36 -5 -57 -10 -13 -23 -21 -29 -17 -6 4
-10 -6 -10 -24 0 -22 -5 -31 -16 -31 -14 0 -14 -3 -4 -15 7 -8 8 -15 3 -15 -6
0 -11 -12 -12 -27 -8 -149 -9 -200 -3 -295 4 -60 4 -112 -1 -115 -4 -3 -3 -11
3 -18 7 -8 13 -39 13 -69 1 -34 7 -58 15 -60 6 -3 12 -13 12 -21 0 -12 -6 -15
-20 -10 -11 3 -20 3 -21 -2 0 -4 -2 -18 -3 -31 -2 -13 1 -25 6 -28 5 -3 5 -11
0 -17 -6 -7 -6 -41 0 -87 5 -46 5 -83 0 -96 -6 -13 -6 -27 0 -37 5 -10 8 -25
6 -35 -1 -9 1 -23 6 -31 6 -9 3 -17 -9 -23 -16 -9 -17 -23 -11 -147 4 -75 11
-149 16 -166 4 -16 11 -54 15 -84 12 -104 111 -187 245 -205 30 -5 64 -7 75
-7 11 1 286 2 610 4 613 2 606 2 754 43 8 3 11 12 8 24 -3 11 -1 20 4 20 5 0
9 -7 9 -14 0 -12 6 -13 30 -5 46 16 76 82 96 207 9 59 16 113 15 120 -2 11 -2
34 -1 90 0 13 4 21 9 18 5 -3 6 9 1 28 -4 19 -3 41 3 51 5 10 6 39 2 69 -10
73 -11 216 -2 216 7 0 5 144 -5 316 -3 52 -20 84 -44 84 -8 0 -14 6 -14 14 0
15 21 26 51 26 11 0 17 5 14 10 -10 16 -79 48 -92 43 -7 -3 -13 0 -13 6 0 5
-11 -1 -25 -15 -14 -14 -25 -31 -25 -39 0 -18 -5 -18 -32 -4 -14 8 -23 8 -31
0 -15 -15 -27 -14 -27 4 0 8 -5 15 -12 15 -6 0 -3 6 7 14 18 13 18 14 -5 26
-37 20 -74 22 -383 18 -27 0 -35 -3 -29 -11 17 -22 21 -59 8 -73 -8 -7 -16
-10 -20 -7 -3 4 -6 1 -6 -6 0 -9 -5 -9 -22 0 -18 10 -20 9 -15 -5 3 -8 2 -18
-3 -21 -6 -4 -7 -14 -2 -23 5 -9 7 -53 5 -97 -9 -218 -9 -262 5 -304 8 -24 12
-60 9 -80 -2 -20 0 -47 5 -61 9 -23 8 -23 -10 -7 -24 22 -52 12 -52 -18 0 -13
-4 -27 -10 -30 -5 -3 -10 -1 -10 6 0 11 -16 9 -52 -6 -14 -6 -18 -2 -18 16 0
13 -4 29 -8 35 -8 14 -116 20 -155 10 -45 -13 -73 13 -82 76 -5 29 -7 58 -6
63 2 6 2 118 1 250 -1 132 -2 409 -2 615 1 394 1 459 0 500 -1 26 0 171 2 325
1 50 1 108 2 130 0 22 0 159 -1 305 -1 418 -1 693 1 715 1 11 2 108 2 216 1
172 -1 199 -16 216 -25 27 -27 102 -4 115 10 6 27 19 38 30 17 17 24 18 45 9
31 -14 43 -14 43 2 0 7 10 13 23 14 12 1 36 5 53 8 26 4 32 2 30 -11 -1 -14
10 -17 66 -19 37 -1 73 -6 80 -12 7 -6 21 -12 32 -14 15 -3 19 -14 21 -54 2
-27 8 -63 15 -80 10 -25 9 -31 -7 -43 -14 -10 -18 -27 -18 -82 0 -39 3 -70 8
-70 4 0 7 18 7 41 0 24 4 38 10 34 6 -3 10 -21 10 -40 0 -19 5 -37 10 -40 6
-3 10 -15 10 -27 0 -16 -5 -19 -21 -15 -24 6 -34 -12 -25 -48 5 -18 13 -25 30
-25 13 0 29 -7 36 -15 7 -8 27 -15 44 -15 17 0 37 -4 44 -9 7 -4 31 -5 52 -1
21 4 43 3 47 -1 5 -5 22 -5 38 0 17 4 45 4 63 0 17 -4 32 -3 32 1 0 5 3 15 6
24 4 11 0 16 -12 16 -15 0 -16 2 -5 9 16 10 42 7 68 -8 15 -9 15 -10 2 -11
-30 0 -17 -30 13 -30 15 0 28 5 28 10 0 6 -5 10 -12 10 -23 0 1 12 52 25 50
13 95 10 71 -4 -8 -5 -7 -12 2 -25 16 -22 47 -12 40 15 -3 11 1 21 11 25 12 5
13 10 5 25 -6 13 -6 19 1 19 5 0 10 7 10 15 0 9 6 18 13 21 9 3 12 16 9 34 -2
17 -8 27 -13 24 -5 -3 -9 0 -9 5 0 6 8 11 18 12 14 0 14 2 -3 9 -11 5 -15 9
-8 9 6 1 12 16 12 34 0 17 2 64 3 102 3 64 -6 115 -21 115 -3 0 -7 -10 -8 -23
0 -12 -6 -35 -12 -51 -15 -38 -37 -20 -26 21 5 15 7 58 6 96 -3 71 10 88 31
42 18 -41 25 -29 22 40 -2 41 1 65 8 65 16 0 3 162 -16 198 -9 18 -13 43 -9
69 3 25 1 43 -6 47 -6 4 -11 18 -11 31 0 28 -90 125 -115 125 -9 0 -24 9 -33
19 -19 22 -102 38 -102 20 0 -8 -4 -8 -15 1 -18 15 -102 22 -110 10 -3 -5 -21
-2 -41 6 -19 8 -45 12 -56 8 -28 -8 -97 -11 -92 -3 5 9 -173 3 -211 -7 -16 -4
-34 -13 -40 -19 -19 -23 -45 -26 -45 -6 0 26 -31 36 -46 16 -11 -15 -13 -15
-22 1 -6 11 -24 18 -48 20 -22 1 -60 5 -85 9 -25 4 -62 2 -81 -3 -19 -5 -41
-7 -49 -3 -8 4 -27 5 -44 3z m170 -42 c-3 -5 -13 -10 -21 -10 -8 0 -14 5 -14
10 0 6 9 10 21 10 11 0 17 -4 14 -10z m452 -6 c-3 -3 -12 -4 -19 -1 -8 3 -5 6
6 6 11 1 17 -2 13 -5z m-897 -11 c0 -5 -7 -16 -14 -26 -12 -16 -14 -16 -20 -1
-10 26 -7 34 14 34 11 0 20 -3 20 -7z m1110 -2 c3 -1 -1 -5 -8 -10 -15 -9 -64
-2 -58 8 4 5 42 6 66 2z m225 -31 c-3 -5 -14 -10 -23 -10 -15 0 -15 2 -2 10
20 13 33 13 25 0z m-168 -6 c-3 -3 -12 -4 -19 -1 -8 3 -5 6 6 6 11 1 17 -2 13
-5z m347 -295 c-8 -13 -24 -1 -24 18 0 13 3 13 15 3 8 -7 12 -16 9 -21z m6
-63 c0 -8 -4 -18 -10 -21 -5 -3 -10 3 -10 14 0 12 5 21 10 21 6 0 10 -6 10
-14z m-7 -128 l-11 -33 -1 45 c-1 33 2 41 11 32 8 -8 8 -20 1 -44z m-703 -18
c0 -5 -4 -10 -10 -10 -5 0 -10 5 -10 10 0 6 5 10 10 10 6 0 10 -4 10 -10z
m-40 -4 c0 -2 -7 -7 -16 -10 -8 -3 -12 -2 -9 4 6 10 25 14 25 6z m-70 -16 c0
-5 8 -10 17 -10 14 0 15 -2 4 -12 -11 -10 -14 -10 -18 0 -3 6 -11 12 -19 12
-9 0 -12 5 -9 10 3 6 10 10 16 10 5 0 9 -4 9 -10z m-266 -35 c-4 -8 -11 -15
-16 -15 -6 0 -5 6 2 15 7 8 14 15 16 15 2 0 1 -7 -2 -15z m1026 -39 c0 -3 -4
-8 -10 -11 -5 -3 -10 -1 -10 4 0 6 5 11 10 11 6 0 10 -2 10 -4z m-1060 -76 c0
-11 -4 -20 -9 -20 -14 0 -23 18 -16 30 10 17 25 11 25 -10z m1036 -107 c6 18
24 14 24 -5 0 -6 -3 -9 -6 -5 -10 10 -34 -20 -34 -43 0 -12 -4 -18 -10 -15 -6
4 -8 11 -4 16 3 5 1 16 -5 23 -6 7 -8 21 -5 31 7 17 8 17 20 0 12 -16 14 -17
20 -2z m-1026 -77 c0 -41 -11 -26 -15 20 -2 25 0 33 6 23 5 -8 9 -27 9 -43z
m480 24 c0 -5 -4 -10 -10 -10 -5 0 -10 5 -10 10 0 6 5 10 10 10 6 0 10 -4 10
-10z m613 -33 c3 -12 8 -32 12 -43 6 -19 3 -21 -25 -18 -29 4 -31 2 -19 -13
13 -15 12 -15 -6 -5 -11 6 -29 17 -40 26 -19 15 -19 15 8 16 15 0 27 5 27 11
0 5 -4 8 -9 4 -15 -9 -23 13 -12 33 14 26 57 18 64 -11z m-133 -3 c0 -14 -35
-64 -45 -64 -5 0 -17 5 -25 10 -12 8 -11 10 8 10 14 0 27 9 34 25 10 22 28 35
28 19z m-325 -144 c3 -5 -1 -10 -9 -10 -9 0 -16 5 -16 10 0 6 4 10 9 10 6 0
13 -4 16 -10z m90 -11 c-33 -13 -65 -11 -59 4 3 9 17 11 42 9 30 -4 33 -6 17
-13z m117 14 c-6 -2 -10 -9 -6 -14 3 -5 -7 -8 -23 -8 -17 1 -21 3 -10 6 9 2
15 9 12 14 -4 5 4 9 17 8 13 0 17 -3 10 -6z m213 -3 c3 -5 -3 -10 -14 -10 -11
0 -23 5 -26 10 -3 6 3 10 14 10 11 0 23 -4 26 -10z m-150 -10 c-27 -12 -35
-12 -35 0 0 6 12 10 28 9 24 0 25 -1 7 -9z m55 -10 c0 -5 -4 -10 -10 -10 -5 0
-10 5 -10 10 0 6 5 10 10 10 6 0 10 -4 10 -10z m-1560 -200 c0 -5 -5 -10 -11
-10 -5 0 -7 5 -4 10 3 6 8 10 11 10 2 0 4 -4 4 -10z m-50 -66 c0 -7 -4 -16
-10 -19 -5 -3 -10 0 -10 7 0 7 -3 24 -6 38 -5 24 -5 24 10 6 9 -11 16 -25 16
-32z m64 -63 c3 -5 -1 -11 -9 -15 -9 -3 -15 0 -15 9 0 16 16 20 24 6z m-74
-1233 c0 -35 -2 -39 -15 -28 -21 17 -16 88 6 75 5 -4 9 -24 9 -47z m-3 -334
c-7 -7 -37 7 -37 17 0 6 9 5 21 -1 11 -7 19 -14 16 -16z m1 -32 c3 -9 -2 -13
-14 -10 -9 1 -19 9 -22 16 -3 9 2 13 14 10 9 -1 19 -9 22 -16z m1307 -572 c3
-5 1 -10 -4 -10 -6 0 -11 5 -11 10 0 6 2 10 4 10 3 0 8 -4 11 -10z m-97 -232
c8 -31 7 -34 -23 -48 -26 -13 -31 -19 -24 -36 11 -32 -5 -49 -20 -21 -11 21
-10 30 5 58 22 41 25 59 13 59 -6 0 -7 5 -4 10 14 23 44 10 53 -22z m148 -20
c-9 -5 -21 -6 -28 -2 -8 5 -5 10 8 14 25 10 41 0 20 -12z m-730 -140 c2 -39 0
-46 -6 -28 -10 30 -13 96 -4 87 4 -4 8 -30 10 -59z m884 38 c0 -3 -4 -8 -10
-11 -5 -3 -10 -1 -10 4 0 6 5 11 10 11 6 0 10 -2 10 -4z m-900 -50 c0 -3 -4
-8 -10 -11 -5 -3 -10 -1 -10 4 0 6 5 11 10 11 6 0 10 -2 10 -4z m0 -63 c0 -22
-2 -25 -10 -13 -13 20 -13 40 0 40 6 0 10 -12 10 -27z m30 -19 c0 -14 -4 -23
-9 -20 -5 3 -7 15 -4 26 7 28 13 25 13 -6z m1107 -81 c-3 -10 -5 -2 -5 17 0
19 2 27 5 18 2 -10 2 -26 0 -35z m-1127 -35 c0 -5 -4 -8 -10 -8 -5 0 -10 10
-10 23 0 18 2 19 10 7 5 -8 10 -18 10 -22z m1130 -12 c0 -3 -4 -8 -10 -11 -5
-3 -10 -1 -10 4 0 6 5 11 10 11 6 0 10 -2 10 -4z m-680 -56 c0 -5 -2 -10 -4
-10 -3 0 -8 5 -11 10 -3 6 -1 10 4 10 6 0 11 -4 11 -10z m685 -40 c9 -16 12
-30 7 -30 -8 0 -32 42 -32 55 0 13 11 2 25 -25z m-700 -19 c-3 -12 -13 -21
-21 -21 -12 0 -12 4 3 24 21 28 28 26 18 -3z m692 -53 c-3 -7 -5 -2 -5 12 0
14 2 19 5 13 2 -7 2 -19 0 -25z m-1747 7 c10 -12 10 -15 -3 -15 -8 0 -20 7
-27 15 -10 12 -10 15 3 15 8 0 20 -7 27 -15z m1060 -15 c0 -11 -7 -20 -16 -20
-8 0 -12 5 -9 10 3 6 -1 10 -10 10 -9 0 -13 5 -10 10 12 19 45 11 45 -10z
m-103 -7 c-9 -9 -19 -14 -23 -11 -10 10 6 28 24 28 15 0 15 -1 -1 -17z m-968
-121 c6 -18 6 -30 1 -27 -4 3 -11 -3 -14 -12 -6 -15 -8 -15 -16 -3 -5 9 -5 19
2 27 7 9 5 17 -6 28 -17 18 -20 28 -9 39 10 10 32 -16 42 -52z m1 -82 c0 -5
-4 -10 -10 -10 -5 0 -10 5 -10 10 0 6 5 10 10 10 6 0 10 -4 10 -10z m30 -140
c0 -5 -4 -10 -10 -10 -5 0 -10 5 -10 10 0 6 5 10 10 10 6 0 10 -4 10 -10z"/>
<path d="M542 5006 c-13 -14 -23 -36 -21 -48 1 -13 -1 -31 -6 -40 -4 -10 -5
-25 -1 -33 3 -8 1 -39 -5 -68 -6 -28 -11 -59 -11 -67 0 -8 3 -103 6 -210 11
-348 12 -465 4 -487 -4 -13 -4 -23 0 -23 5 0 6 -1485 0 -1610 -1 -14 0 -77 2
-142 1 -64 -1 -121 -4 -126 -3 -6 -1 -12 5 -14 12 -4 19 -589 8 -644 -3 -17
-1 -40 5 -50 6 -11 12 -71 12 -139 1 -66 2 -129 3 -140 1 -11 2 -45 1 -75 -1
-30 -1 -104 -1 -165 1 -60 -2 -147 -7 -193 -4 -48 -4 -86 1 -91 5 -5 9 -70 8
-144 -1 -110 2 -137 14 -147 9 -7 13 -21 10 -31 -4 -12 -1 -19 7 -19 8 0 13
-12 13 -32 0 -28 3 -33 25 -33 18 0 26 -6 28 -23 4 -28 -43 -50 -71 -33 -13 9
-17 8 -17 -4 0 -8 13 -21 28 -29 15 -8 33 -26 40 -40 l11 -25 276 3 276 3 34
33 c19 19 35 40 35 47 0 7 5 13 11 13 6 0 9 -7 5 -15 -8 -21 -1 -19 30 10 24
22 26 30 22 85 -2 33 0 60 5 60 5 0 6 19 2 43 -11 61 -12 237 -2 237 4 0 5 5
1 11 -3 6 -8 41 -10 78 -2 36 -4 75 -4 86 -1 11 1 30 5 43 5 14 3 22 -4 22 -6
0 -11 9 -11 20 0 11 5 20 11 20 6 0 8 8 5 18 -3 9 -5 31 -5 47 0 25 7 648 10
817 0 26 -4 55 -9 65 -12 24 -15 106 -4 99 4 -2 9 41 9 97 1 65 -3 105 -10
109 -26 16 11 22 158 26 127 4 155 2 155 -9 0 -10 3 -10 8 -3 10 16 71 23 80
10 4 -6 7 -150 8 -321 1 -170 2 -409 3 -530 1 -121 2 -301 1 -400 -3 -233 -4
-221 23 -245 19 -18 22 -31 22 -96 0 -43 -4 -74 -10 -74 -5 0 -10 -11 -10 -24
0 -13 3 -22 8 -19 12 7 11 -57 -2 -67 -9 -7 -8 -150 2 -150 4 0 7 -11 7 -25 0
-19 4 -23 16 -18 14 5 16 2 10 -20 -5 -23 -2 -29 18 -39 14 -6 23 -15 20 -19
-6 -11 -13 -11 191 -9 343 3 393 3 402 -3 15 -9 53 22 53 44 0 10 6 19 14 19
14 0 28 55 27 105 -1 42 7 317 15 504 4 91 2 143 -6 162 -7 15 -11 43 -11 61
2 42 2 65 2 223 -1 222 7 687 12 754 3 35 2 84 -2 108 -5 24 -5 46 0 49 5 3 2
12 -6 20 -8 9 -15 23 -15 32 0 9 -7 26 -15 36 -8 11 -15 27 -15 35 0 13 2 13
9 3 6 -11 13 -7 30 14 17 22 21 40 21 105 0 44 -3 79 -7 79 -10 0 -11 146 -1
155 3 4 2 20 -3 37 -4 17 -7 34 -4 38 2 4 0 46 -5 95 -6 57 -6 95 1 107 7 13
6 18 -2 18 -8 0 -8 4 -2 13 6 6 11 80 12 162 1 83 3 193 4 245 1 124 -8 216
-23 235 -13 15 -8 19 23 15 16 -1 17 2 7 19 -6 12 -10 27 -9 34 4 29 -2 47
-15 47 -25 0 -28 18 -7 39 25 25 34 116 11 116 -24 0 -40 38 -33 79 6 39 17
46 32 19 15 -28 19 -14 22 72 2 44 8 83 13 87 7 5 3 8 -7 8 -14 0 -18 7 -16
28 2 15 0 33 -4 40 -5 6 -5 17 -1 24 5 7 2 9 -9 5 -15 -5 -27 10 -27 36 0 8 3
8 11 0 9 -9 15 -8 26 3 11 11 16 54 19 181 3 93 5 191 4 219 0 28 4 62 9 77 6
15 6 27 1 29 -5 2 -11 35 -13 75 -2 41 -10 82 -19 95 -8 13 -14 34 -13 48 2
22 -4 27 -52 42 -37 11 -63 14 -83 8 -16 -5 -62 -4 -102 0 -68 8 -138 7 -249
-3 -26 -3 -53 -1 -60 3 -7 5 -25 2 -41 -6 -18 -9 -41 -12 -67 -8 -36 6 -41 4
-55 -22 -18 -34 -19 -31 -7 13 8 29 7 32 -16 38 -17 4 -29 1 -34 -6 -13 -21
-18 -98 -15 -199 3 -91 4 -95 24 -93 19 2 22 -2 22 -32 0 -35 -16 -47 -26 -20
-18 45 -24 -5 -24 -187 -1 -112 -2 -486 -3 -833 -1 -346 1 -647 4 -668 l7 -38
-72 1 c-102 1 -105 1 -117 -23 l-12 -21 -8 23 c-8 19 -15 22 -46 20 -32 -3
-37 -1 -35 14 3 16 0 15 -18 -3 -15 -15 -28 -20 -43 -15 -12 4 -34 6 -49 6
-29 -1 -35 9 -41 79 l-3 35 -13 -45 c-15 -48 -39 -85 -27 -40 4 14 9 32 10 41
1 9 10 29 20 44 29 44 32 77 22 230 -13 211 -18 372 -22 730 -2 204 -6 481 -9
617 -3 140 -2 249 3 252 14 9 -3 81 -25 110 -21 26 -36 26 -26 0 3 -8 0 -14
-6 -14 -6 0 -11 5 -11 10 0 6 -18 10 -39 10 -22 0 -43 5 -46 10 -4 6 -28 10
-53 10 -229 -5 -430 -3 -467 5 -24 4 -35 0 -53 -19z m1238 -106 c0 -5 -4 -10
-9 -10 -6 0 -13 5 -16 10 -3 6 1 10 9 10 9 0 16 -4 16 -10z m1 -54 c-8 -9 -8
-16 -2 -20 15 -9 2 -36 -14 -30 -33 13 -23 64 12 64 12 0 13 -3 4 -14z m-558
-71 c-7 -21 -13 -19 -13 6 0 11 4 18 10 14 5 -3 7 -12 3 -20z m1267 -259 c0
-3 -4 -8 -10 -11 -5 -3 -10 -1 -10 4 0 6 5 11 10 11 6 0 10 -2 10 -4z m-1923
-338 c-3 -7 -5 -2 -5 12 0 14 2 19 5 13 2 -7 2 -19 0 -25z m73 -118 c0 -5 -9
-15 -19 -22 -10 -6 -17 -18 -14 -26 5 -11 7 -11 14 0 6 9 9 9 9 1 0 -6 -4 -15
-10 -18 -11 -7 -13 -45 -4 -69 3 -9 9 -14 13 -11 4 2 8 -3 8 -11 0 -10 -7 -14
-19 -11 -10 3 -18 1 -18 -4 0 -5 -4 -9 -10 -9 -5 0 -10 7 -10 15 0 10 -6 12
-17 8 -16 -6 -16 -5 -4 10 9 11 11 28 7 53 -10 49 1 99 19 84 9 -7 16 -6 25 5
14 17 30 20 30 5z m29 -80 c-13 -16 -24 -28 -27 -26 -6 6 29 56 39 56 5 0 0
-13 -12 -30z m371 -950 c0 -5 -2 -10 -4 -10 -3 0 -8 5 -11 10 -3 6 -1 10 4 10
6 0 11 -4 11 -10z m23 -46 c-7 -18 -27 -13 -31 9 -2 11 2 14 17 10 12 -3 17
-11 14 -19z m497 -84 c0 -5 -4 -10 -10 -10 -5 0 -10 5 -10 10 0 6 5 10 10 10
6 0 10 -4 10 -10z m927 -142 c-3 -8 -6 -5 -6 6 -1 11 2 17 5 13 3 -3 4 -12 1
-19z m-923 -63 c3 -8 1 -15 -4 -15 -6 0 -10 7 -10 15 0 8 2 15 4 15 2 0 6 -7
10 -15z m925 -162 c1 -7 -6 -13 -14 -13 -16 0 -19 17 -8 46 6 16 7 16 14 -2 4
-10 8 -25 8 -31z m-6 -163 c4 -15 0 -20 -14 -20 -21 0 -22 1 -13 24 8 22 21
20 27 -4z m-1916 -802 c-3 -8 -6 -5 -6 6 -1 11 2 17 5 13 3 -3 4 -12 1 -19z
m1246 -145 c3 -15 1 -32 -4 -37 -5 -6 -9 -2 -9 11 0 11 -7 23 -15 27 -8 3 -15
15 -15 26 0 31 36 8 43 -27z m101 -9 c3 -8 0 -29 -7 -47 -13 -31 -14 -32 -25
-10 -15 27 -5 84 13 76 8 -2 16 -11 19 -19z m-84 -89 c0 -8 -2 -15 -4 -15 -2
0 -6 7 -10 15 -3 8 -1 15 4 15 6 0 10 -7 10 -15z m20 -28 c0 -14 -6 -24 -15
-24 -18 0 -19 13 -2 32 16 19 17 19 17 -8z m-1265 -67 c3 -5 -1 -10 -10 -10
-9 0 -13 5 -10 10 3 6 8 10 10 10 2 0 7 -4 10 -10z m691 -366 c-3 -9 -6 -23
-6 -32 0 -10 -3 -13 -10 -6 -11 11 -2 54 12 54 6 0 7 -7 4 -16z m-656 -349
c-7 -9 -20 -13 -29 -10 -13 5 -14 4 -3 -6 14 -15 16 -55 3 -63 -5 -3 -11 13
-14 37 -6 44 2 57 37 57 15 0 16 -2 6 -15z m-3 -137 c-3 -7 -5 -2 -5 12 0 14
2 19 5 13 2 -7 2 -19 0 -25z m444 -198 c23 -13 27 -45 4 -36 -8 3 -15 1 -15
-4 0 -6 -12 -10 -26 -10 -14 0 -35 -5 -46 -11 -15 -8 -27 -8 -45 0 -25 11 -25
12 -8 31 12 13 31 20 57 20 24 0 37 4 33 10 -8 13 21 13 46 0z m-197 -45 c3
-8 1 -15 -3 -15 -5 0 -11 7 -15 15 -3 8 -1 15 3 15 5 0 11 -7 15 -15z m1376
11 c0 -2 -7 -7 -16 -10 -8 -3 -12 -2 -9 4 6 10 25 14 25 6z"/>
<path d="M1890 1393 c0 -18 2 -33 4 -33 9 0 13 39 5 51 -6 10 -9 4 -9 -18z"/>
</g>
</svg>
